<svg width="16" height="16" viewBox="0 0 16 16" fill="none" xmlns="http://www.w3.org/2000/svg">
<path d="M1.22178 15.6719H4.30589V5.6875H1.22178V15.6719Z" fill="black"/>
<path d="M0.941406 2.5C0.941406 3.48438 1.7358 4.28125 2.76384 4.28125C3.74514 4.28125 4.53954 3.48438 4.53954 2.5C4.53954 1.51563 3.74514 0.671875 2.76384 0.671875C1.7358 0.671875 0.941406 1.51563 0.941406 2.5Z" fill="black"/>
<path d="M12.8106 15.6719H15.9414V10.1875C15.9414 7.51563 15.3339 5.40625 12.2031 5.40625C10.7078 5.40625 9.67972 6.25 9.25916 7.04688H9.21243V5.6875H6.26851V15.6719H9.35262V10.75C9.35262 9.4375 9.58627 8.17188 11.2218 8.17188C12.8106 8.17188 12.8106 9.67188 12.8106 10.7969V15.6719Z" fill="black"/>
</svg>
